<svg width="16" height="12" viewBox="0 0 16 12" fill="none" xmlns="http://www.w3.org/2000/svg">
<g clip-path="url(#clip0_1101_26960)">
<path d="M13.3112 0.991232C15.0438 3.53868 15.8995 6.41214 15.5796 9.72014C15.5783 9.73414 15.571 9.74699 15.5595 9.75543C14.2474 10.7189 12.9762 11.3036 11.7228 11.6913C11.713 11.6943 11.7026 11.6941 11.6929 11.6909C11.6833 11.6876 11.6749 11.6814 11.6689 11.6731C11.3793 11.2702 11.1162 10.8454 10.8857 10.3994C10.8725 10.3731 10.8846 10.3415 10.9118 10.3311C11.3297 10.1737 11.727 9.98497 12.1092 9.76156C12.1393 9.74392 12.1412 9.70077 12.1134 9.68006C12.0323 9.61985 11.952 9.55656 11.8751 9.49328C11.8607 9.48158 11.8413 9.47928 11.825 9.48714C9.34372 10.633 6.62559 10.633 4.11496 9.48714C4.09866 9.47985 4.07929 9.48235 4.06529 9.49385C3.98859 9.55714 3.90804 9.61985 3.82769 9.68006C3.79989 9.70077 3.80219 9.74392 3.83249 9.76156C4.21468 9.98075 4.61203 10.1737 5.02931 10.3319C5.05635 10.3422 5.0692 10.3731 5.05578 10.3994C4.83026 10.846 4.56715 11.2708 4.27221 11.6737C4.25936 11.69 4.23827 11.6975 4.21832 11.6913C2.97087 11.3036 1.69964 10.7189 0.387561 9.75543C0.376631 9.74699 0.368768 9.73356 0.367618 9.71956C0.100293 6.85819 0.645106 3.96096 2.63394 0.990656C2.63873 0.982794 2.64602 0.976657 2.65445 0.973014C3.63305 0.523892 4.68145 0.193476 5.77721 0.00477569C5.79715 0.0017074 5.8171 0.0109123 5.82745 0.028555C5.96284 0.268265 6.1176 0.57567 6.2223 0.826886C7.37732 0.650459 8.55037 0.650459 9.72955 0.826886C9.83426 0.581039 9.98365 0.268265 10.1185 0.028555C10.1233 0.0198026 10.1307 0.0127907 10.1397 0.0085203C10.1487 0.0042499 10.1589 0.00293932 10.1687 0.00477569C11.265 0.194051 12.3134 0.524468 13.2913 0.973014C13.2999 0.976657 13.307 0.982794 13.3112 0.991232V0.991232ZM6.8095 6.4317C6.82158 5.58581 6.20485 4.88585 5.43068 4.88585C4.66284 4.88585 4.05206 5.57967 4.05206 6.4317C4.05206 7.28353 4.67493 7.97735 5.43068 7.97735C6.19872 7.97735 6.8095 7.28353 6.8095 6.4317V6.4317ZM11.9071 6.4317C11.9192 5.58581 11.3024 4.88585 10.5285 4.88585C9.76043 4.88585 9.14965 5.57967 9.14965 6.4317C9.14965 7.28353 9.77251 7.97735 10.5285 7.97735C11.3024 7.97735 11.9071 7.28353 11.9071 6.4317V6.4317Z" fill="#58667E"/>
</g>
<defs>
<clipPath id="clip0_1101_26960">
<rect width="16" height="11.6992" fill="white"/>
</clipPath>
</defs>
</svg>
