<svg width="14" height="15" viewBox="0 0 14 15" fill="none" xmlns="http://www.w3.org/2000/svg">
<path d="M13.6666 10.2933C13.6666 12.72 12.2199 14.1666 9.79325 14.1666H8.99992C8.63325 14.1666 8.33325 13.8666 8.33325 13.5V9.65332C8.33325 9.47332 8.47991 9.31999 8.65991 9.31999L9.83325 9.29999C9.92659 9.29332 10.0066 9.22666 10.0266 9.13332L10.2599 7.85999C10.2799 7.73999 10.1866 7.62665 10.0599 7.62665L8.63991 7.64665C8.45325 7.64665 8.30659 7.49999 8.29993 7.31999L8.27325 5.68665C8.27325 5.57998 8.35991 5.48665 8.47325 5.48665L10.0732 5.45998C10.1866 5.45998 10.2733 5.37332 10.2733 5.25999L10.2466 3.65997C10.2466 3.54664 10.1599 3.45998 10.0466 3.45998L8.24658 3.48665C7.13992 3.50665 6.25993 4.41331 6.27993 5.51998L6.31325 7.35331C6.31992 7.53998 6.17326 7.68665 5.98659 7.69332L5.18658 7.70665C5.07325 7.70665 4.98659 7.7933 4.98659 7.90664L5.00659 9.17332C5.00659 9.28665 5.09325 9.37331 5.20658 9.37331L6.00659 9.35999C6.19326 9.35999 6.33991 9.50665 6.34658 9.68665L6.40658 13.4867C6.41324 13.86 6.11324 14.1666 5.73991 14.1666H4.20658C1.77992 14.1666 0.333252 12.72 0.333252 10.2866V4.70664C0.333252 2.27998 1.77992 0.833313 4.20658 0.833313H9.79325C12.2199 0.833313 13.6666 2.27998 13.6666 4.70664V10.2933Z" fill="#58667E"/>
</svg>
