<svg width="16" height="16" viewBox="0 0 16 16" fill="none" xmlns="http://www.w3.org/2000/svg">
<path d="M10.7933 1.33331H5.20659C2.77992 1.33331 1.33325 2.77998 1.33325 5.20665V10.7866C1.33325 13.22 2.77992 14.6666 5.20659 14.6666H10.7866C13.2133 14.6666 14.6599 13.22 14.6599 10.7933V5.20665C14.6666 2.77998 13.2199 1.33331 10.7933 1.33331ZM7.99992 10.5866C6.57325 10.5866 5.41325 9.42665 5.41325 7.99998C5.41325 6.57331 6.57325 5.41331 7.99992 5.41331C9.42659 5.41331 10.5866 6.57331 10.5866 7.99998C10.5866 9.42665 9.42659 10.5866 7.99992 10.5866ZM11.9466 4.58665C11.9133 4.66665 11.8666 4.73998 11.8066 4.80665C11.7399 4.86665 11.6666 4.91331 11.5866 4.94665C11.5066 4.97998 11.4199 4.99998 11.3333 4.99998C11.1533 4.99998 10.9866 4.93331 10.8599 4.80665C10.7999 4.73998 10.7533 4.66665 10.7199 4.58665C10.6866 4.50665 10.6666 4.41998 10.6666 4.33331C10.6666 4.24665 10.6866 4.15998 10.7199 4.07998C10.7533 3.99331 10.7999 3.92665 10.8599 3.85998C11.0133 3.70665 11.2466 3.63331 11.4599 3.67998C11.5066 3.68665 11.5466 3.69998 11.5866 3.71998C11.6266 3.73331 11.6666 3.75331 11.7066 3.77998C11.7399 3.79998 11.7733 3.83331 11.8066 3.85998C11.8666 3.92665 11.9133 3.99331 11.9466 4.07998C11.9799 4.15998 11.9999 4.24665 11.9999 4.33331C11.9999 4.41998 11.9799 4.50665 11.9466 4.58665Z" fill="#58667E"/>
</svg>
