<svg width="12" height="9" viewBox="0 0 12 9" fill="none" xmlns="http://www.w3.org/2000/svg">
<path fill-rule="evenodd" clip-rule="evenodd" d="M1.423 1.74866C1.438 1.61594 1.3815 1.48503 1.2715 1.39596L0.1515 0.181299V0H3.6305L6.3195 5.30625L8.6835 0H12V0.181299L11.042 1.00772C10.9595 1.0644 10.9185 1.15752 10.9355 1.24975V7.32213C10.9185 7.41391 10.9595 7.50703 11.042 7.56371L11.9775 8.39013V8.57143H7.2715V8.39013L8.241 7.54347C8.336 7.45799 8.336 7.4328 8.336 7.30189V2.39377L5.6415 8.55163H5.2775L2.14 2.39377V6.52091C2.114 6.69411 2.178 6.86911 2.3135 6.99417L3.574 8.36989V8.55163H0V8.36989L1.2605 6.99417C1.3955 6.86866 1.4555 6.69276 1.423 6.52091V1.74866V1.74866Z" fill="#58667E"/>
</svg>
