<svg width="16" height="17" viewBox="0 0 16 17" fill="none" xmlns="http://www.w3.org/2000/svg">
<path d="M10.7933 1.83331H5.20659C2.77992 1.83331 1.33325 3.27998 1.33325 5.70665V11.2866C1.33325 13.72 2.77992 15.1666 5.20659 15.1666H10.7866C13.2133 15.1666 14.6599 13.72 14.6599 11.2933V5.70665C14.6666 3.27998 13.2199 1.83331 10.7933 1.83331ZM4.66659 9.37331C4.18659 9.37331 3.79325 8.97998 3.79325 8.49998C3.79325 8.01998 4.18659 7.62665 4.66659 7.62665C5.14659 7.62665 5.53992 8.01998 5.53992 8.49998C5.53992 8.97998 5.14659 9.37331 4.66659 9.37331ZM7.99992 9.37331C7.51992 9.37331 7.12659 8.97998 7.12659 8.49998C7.12659 8.01998 7.51992 7.62665 7.99992 7.62665C8.47992 7.62665 8.87325 8.01998 8.87325 8.49998C8.87325 8.97998 8.47992 9.37331 7.99992 9.37331ZM11.3333 9.37331C10.8533 9.37331 10.4599 8.97998 10.4599 8.49998C10.4599 8.01998 10.8533 7.62665 11.3333 7.62665C11.8133 7.62665 12.2066 8.01998 12.2066 8.49998C12.2066 8.97998 11.8133 9.37331 11.3333 9.37331Z" fill="#58667E"/>
</svg>
