<svg width="16" height="16" viewBox="0 0 16 16" fill="none" xmlns="http://www.w3.org/2000/svg">
<path d="M8 16C12.4183 16 16 12.4183 16 8C16 3.58172 12.4183 0 8 0C3.58172 0 0 3.58172 0 8C0 12.4183 3.58172 16 8 16Z" fill="#58667E"/>
<path opacity="0.4" d="M6.53322 11.6666C6.27402 11.6666 6.31809 11.5688 6.22869 11.322L5.46655 8.81378L11.3332 5.33331" fill="white"/>
<path d="M6.53345 11.6664C6.73345 11.6664 6.82178 11.575 6.93345 11.4664L8.00011 10.4292L6.66958 9.62689" fill="white"/>
<path d="M6.66908 9.62717L9.89307 12.0091C10.261 12.2121 10.5265 12.107 10.6181 11.6676L11.9305 5.48336C12.0648 4.9447 11.7251 4.7003 11.3731 4.8601L3.66714 7.8315C3.14114 8.0425 3.14428 8.33597 3.57128 8.4667L5.54881 9.08397L10.127 6.19563C10.3431 6.06456 10.5415 6.13496 10.3787 6.2795" fill="white"/>
</svg>
