<svg width="16" height="16" viewBox="0 0 16 16" fill="none" xmlns="http://www.w3.org/2000/svg">
<path fill-rule="evenodd" clip-rule="evenodd" d="M1.6 0H14.4C15.2837 0 16 0.716288 16 1.6V14.4C16 15.2837 15.2837 16 14.4 16H1.6C0.716288 16 0 15.2837 0 14.4V1.6C0 0.716288 0.716288 0 1.6 0Z" fill="#58667E"/>
<path fill-rule="evenodd" clip-rule="evenodd" d="M10.0466 14.72C10.5335 14.72 10.9282 14.3285 10.9282 13.8456C10.9282 13.3627 10.5335 12.9712 10.0466 12.9712H9.91382C10.4007 12.9712 10.7954 13.3627 10.7954 13.8456C10.7954 14.3285 10.4007 14.72 9.91382 14.72H10.0466Z" fill="#58667E"/>
<path fill-rule="evenodd" clip-rule="evenodd" d="M9.90213 12.9712H9.76932C9.28246 12.9712 8.8877 13.3627 8.8877 13.8456C8.8877 14.3285 9.28246 14.72 9.76932 14.72H9.90213C9.4152 14.72 9.0205 14.3285 9.0205 13.8456C9.0205 13.3627 9.4152 12.9712 9.90213 12.9712V12.9712Z" fill="#58667E"/>
<path fill-rule="evenodd" clip-rule="evenodd" d="M3.19995 12.576V13.0192H3.71912V14.708H4.23848V13.0312H4.66107L4.80597 12.576H3.19995ZM7.45051 12.576V13.0192H7.96968V14.708H8.48904V13.0312H8.91163L9.05653 12.576H7.45051ZM4.90267 12.8275C4.90267 12.6886 5.01602 12.576 5.15605 12.576C5.29621 12.576 5.40968 12.6886 5.40968 12.8275C5.40968 12.9664 5.29627 13.079 5.15605 13.079C5.01602 13.079 4.90267 12.9664 4.90267 12.8275ZM4.90267 13.2587H5.40968V14.708H4.90267V13.2587ZM5.62709 12.576V14.708H6.13429V14.1571L6.29128 14.0132L6.78632 14.72H7.32968L6.61717 13.6899L7.25717 13.067H6.64136L6.13429 13.57V12.576H5.62709ZM11.0972 12.576V14.708H11.6044V14.1571L11.7614 14.0132L12.2565 14.72H12.8L12.0874 13.6899L12.7274 13.067H12.1116L11.6044 13.57V12.576H11.0972Z" fill="white"/>
<path fill-rule="evenodd" clip-rule="evenodd" d="M10.3147 5.1959C11.0151 5.69632 11.8732 5.99078 12.7999 5.99078V4.20832C12.6245 4.20839 12.4496 4.19009 12.278 4.15373V5.5568C11.3514 5.5568 10.4934 5.26233 9.79277 4.76192V8.39935C9.79277 10.219 8.31693 11.694 6.49645 11.694C5.81722 11.694 5.18586 11.4887 4.66138 11.1367C5.25997 11.7485 6.09472 12.128 7.01824 12.128C8.83885 12.128 10.3148 10.653 10.3148 8.83327V5.1959H10.3147ZM10.9585 3.39764C10.6006 3.00679 10.3656 2.50164 10.3147 1.94318V1.71393H9.8201C9.94458 2.42369 10.3692 3.03008 10.9585 3.39764V3.39764ZM5.8128 9.74047C5.61283 9.47838 5.50473 9.15774 5.50522 8.82808C5.50522 7.99583 6.18029 7.32108 7.01312 7.32108C7.16831 7.32097 7.32259 7.34478 7.47053 7.39167V5.56941C7.29768 5.54573 7.12323 5.5357 6.9488 5.53939V6.95775C6.8008 6.91086 6.64645 6.88705 6.4912 6.88716C5.65837 6.88716 4.98336 7.56191 4.98336 8.39423C4.98336 8.98271 5.32077 9.49227 5.8128 9.74047V9.74047Z" fill="#58667E"/>
<path fill-rule="evenodd" clip-rule="evenodd" d="M9.79259 4.76192C10.4932 5.26233 11.3512 5.5568 12.2778 5.5568V4.15373C11.7606 4.04365 11.3027 3.77344 10.9584 3.39764C10.369 3.03008 9.9444 2.42369 9.81992 1.71393H8.52078V8.8332C8.51784 9.66315 7.84392 10.3351 7.01288 10.3351C6.52315 10.3351 6.08808 10.1019 5.81256 9.74046C5.32053 9.49227 4.98312 8.98271 4.98312 8.39423C4.98312 7.56191 5.65813 6.88716 6.49096 6.88716C6.65051 6.88716 6.8043 6.91199 6.94856 6.95775V5.53939C5.16008 5.57632 3.72168 7.03692 3.72168 8.83327C3.72168 9.72997 4.07989 10.5429 4.6612 11.1368C5.18568 11.4888 5.81704 11.6941 6.49627 11.6941C8.31675 11.6941 9.79259 10.219 9.79259 8.39941V4.76192Z" fill="white"/>
<path fill-rule="evenodd" clip-rule="evenodd" d="M12.2778 4.15376V3.77437C11.8114 3.77507 11.3541 3.6445 10.9584 3.3976C11.3087 3.78094 11.77 4.04531 12.2778 4.15376V4.15376ZM9.81996 1.71395C9.80807 1.64613 9.79895 1.57784 9.79263 1.50928V1.28003H7.99886V8.39939C7.99598 9.22928 7.32214 9.90128 6.49104 9.90128C6.24701 9.90128 6.01668 9.84342 5.81265 9.74051C6.08817 10.1019 6.52323 10.3352 7.01296 10.3352C7.84392 10.3352 8.5179 9.6632 8.52084 8.83325V1.71395H9.81996ZM6.9487 5.53942V5.13552C6.79881 5.11502 6.6477 5.10478 6.49642 5.10486C4.67577 5.10486 3.19995 6.57993 3.19995 8.39939C3.19995 9.54013 3.77998 10.5454 4.66137 11.1368C4.08007 10.5429 3.72186 9.72995 3.72186 8.83325C3.72186 7.03696 5.16018 5.57635 6.9487 5.53942V5.53942Z" fill="#58667E"/>
<path fill-rule="evenodd" clip-rule="evenodd" d="M9.91401 14.72C10.4008 14.72 10.7956 14.3285 10.7956 13.8456C10.7956 13.3627 10.4008 12.9712 9.91401 12.9712H9.90198C9.41517 12.9712 9.02051 13.3627 9.02051 13.8456C9.02051 14.3285 9.41517 14.72 9.90198 14.72H9.91401ZM9.47936 13.8456C9.47936 13.6107 9.67134 13.4205 9.90813 13.4205C10.1447 13.4205 10.3367 13.6107 10.3367 13.8456C10.3367 14.0805 10.1447 14.2709 9.90813 14.2709C9.67134 14.2708 9.47936 14.0805 9.47936 13.8456Z" fill="white"/>
</svg>
