<svg width="16" height="16" viewBox="0 0 16 16" fill="none" xmlns="http://www.w3.org/2000/svg">
<g clip-path="url(#clip0_1101_26978)">
<path d="M16 3.03778C15.4116 3.29849 14.7795 3.47465 14.115 3.55428C14.7929 3.14841 15.313 2.50433 15.5582 1.73767C14.924 2.11397 14.2214 2.38736 13.4738 2.53393C12.8748 1.89695 12.0222 1.49811 11.0779 1.49811C9.26556 1.49811 7.79565 2.96801 7.79565 4.7818C7.79574 5.03316 7.82411 5.28372 7.8802 5.52875C5.15107 5.39132 2.73337 4.08417 1.11407 2.09847C0.832235 2.58468 0.670129 3.14841 0.670129 3.74877C0.670129 4.88746 1.25009 5.89303 2.13018 6.48143C1.60893 6.46483 1.09919 6.32398 0.643359 6.07061V6.11288C0.643359 7.70327 1.77434 9.03015 3.27667 9.33176C2.99477 9.40782 2.70403 9.4462 2.41205 9.44591C2.20471 9.44607 1.99781 9.42673 1.79409 9.38813C2.21194 10.6917 3.42396 11.6416 4.86076 11.667C3.73681 12.5478 2.32116 13.0728 0.783586 13.0728C0.518635 13.0728 0.257199 13.0573 0 13.0269C1.45303 13.9593 3.17803 14.5018 5.03128 14.5018C11.0702 14.5018 14.3715 9.50014 14.3715 5.1623C14.3715 5.02139 14.368 4.87902 14.3616 4.73811C15.0029 4.27443 15.5596 3.69733 15.9986 3.03988L16 3.03778Z" fill="#58667E"/>
</g>
<defs>
<clipPath id="clip0_1101_26978">
<rect width="16" height="16" fill="white"/>
</clipPath>
</defs>
</svg>
