<svg width="16" height="16" viewBox="0 0 16 16" fill="none" xmlns="http://www.w3.org/2000/svg">
<path fill-rule="evenodd" clip-rule="evenodd" d="M7.36624 0.904541H8.62825C10.3615 0.904541 11.3743 1.15911 12.2735 1.64117C13.1726 2.12322 13.8821 2.82735 14.3587 3.72647C14.8408 4.62558 15.0954 5.63844 15.0954 7.37168V8.62828C15.0954 10.3615 14.8408 11.3744 14.3587 12.2735C13.8767 13.1726 13.1726 13.8822 12.2735 14.3588C11.3743 14.8408 10.3615 15.0954 8.62825 15.0954H7.37166C5.63843 15.0954 4.62557 14.8408 3.72646 14.3588C2.82734 13.8767 2.1178 13.1726 1.64116 12.2735C1.15911 11.3744 0.904541 10.3615 0.904541 8.62828V7.37168C0.904541 5.63844 1.15911 4.62558 1.64116 3.72647C2.12322 2.82735 2.82734 2.11781 3.72646 1.64117C4.62015 1.15911 5.63843 0.904541 7.36624 0.904541Z" fill="#58667E"/>
<path opacity="0.12" fill-rule="evenodd" clip-rule="evenodd" d="M15.0953 8.42096V8.62831C15.0953 10.3615 14.8407 11.3744 14.3587 12.2735C13.8766 13.1726 13.1725 13.8822 12.2734 14.3588C11.3743 14.8409 10.3614 15.0955 8.62818 15.0955H7.37158C5.95335 15.0955 5.01745 14.925 4.23152 14.599L2.93579 13.2647L15.0953 8.42096Z" fill="#001A33"/>
<path fill-rule="evenodd" clip-rule="evenodd" d="M3.07599 13.3134C3.73726 13.3864 4.56402 13.1979 5.15103 12.9129C7.7001 14.3218 11.6847 14.2545 14.0967 12.711C14.1902 12.5707 14.2776 12.4248 14.3587 12.2735C14.8408 11.3744 15.0954 10.3615 15.0954 8.62828V7.37168C15.0954 5.63844 14.8408 4.62558 14.3587 3.72647C13.8821 2.82735 13.1726 2.12322 12.2735 1.64117C11.3743 1.15911 10.3615 0.904541 8.62825 0.904541H7.36625C5.89009 0.904541 4.93184 1.09035 4.1267 1.44509C4.08267 1.4845 4.0395 1.52459 3.99722 1.56535C1.63502 3.84248 1.45547 8.77857 3.45858 11.4599C3.4608 11.4638 3.46326 11.4678 3.46596 11.4718C3.77469 11.9268 3.4768 12.723 3.01099 13.1888C2.93516 13.2592 2.96224 13.3025 3.07599 13.3134Z" fill="white"/>
<path d="M6.73235 5.71429H3.95376V6.31009H5.88198L3.98084 8.66621C3.92126 8.75287 3.87793 8.83412 3.87793 9.01828V9.16994H6.49944C6.62943 9.16994 6.73776 9.06161 6.73776 8.93162V8.61205H4.71205L6.49944 6.36967C6.52652 6.33718 6.57527 6.2776 6.59694 6.25052L6.60777 6.23427C6.71068 6.08261 6.73235 5.95261 6.73235 5.79554V5.71429Z" fill="#58667E"/>
<path d="M10.269 9.16994H10.6644V5.71429H10.0686V8.96953C10.0686 9.07786 10.1553 9.16994 10.269 9.16994Z" fill="#58667E"/>
<path d="M8.23251 6.48346C7.48505 6.48346 6.87842 7.09009 6.87842 7.83755C6.87842 8.58501 7.48505 9.19164 8.23251 9.19164C8.97996 9.19164 9.58659 8.58501 9.58659 7.83755C9.59201 7.09009 8.98538 6.48346 8.23251 6.48346ZM8.23251 8.63376C7.79378 8.63376 7.4363 8.27628 7.4363 7.83755C7.4363 7.39883 7.79378 7.04135 8.23251 7.04135C8.67123 7.04135 9.02871 7.39883 9.02871 7.83755C9.02871 8.27628 8.67665 8.63376 8.23251 8.63376Z" fill="#58667E"/>
<path d="M12.4247 6.46173C11.6719 6.46173 11.0598 7.07378 11.0598 7.82665C11.0598 8.57953 11.6719 9.19158 12.4247 9.19158C13.1776 9.19158 13.7897 8.57953 13.7897 7.82665C13.7897 7.07378 13.1776 6.46173 12.4247 6.46173ZM12.4247 8.63369C11.9806 8.63369 11.6231 8.27621 11.6231 7.83207C11.6231 7.38793 11.9806 7.03045 12.4247 7.03045C12.8689 7.03045 13.2264 7.38793 13.2264 7.83207C13.2264 8.27621 12.8689 8.63369 12.4247 8.63369Z" fill="#58667E"/>
<path d="M9.27323 9.16989H9.5928V6.5592H9.03491V8.93699C9.03491 9.06156 9.14324 9.16989 9.27323 9.16989Z" fill="#A6B0C3"/>
</svg>
